<svg width="374" height="336" viewBox="0 0 374 336" fill="none" xmlns="http://www.w3.org/2000/svg">
<g clip-path="url(#clip0_12_23)">
<g filter="url(#filter0_ii_12_23)">
<path fill-rule="evenodd" clip-rule="evenodd" d="M224.333 0C234.235 0 243.728 3.93615 250.729 10.9375C257.73 17.9388 261.667 27.4319 261.667 37.3333V64.6667C261.667 70.1895 266.144 74.6667 271.667 74.6667H336.333C346.235 74.6667 355.728 78.6028 362.729 85.6042C369.73 92.6055 373.667 102.099 373.667 112V298.667C373.667 308.568 369.73 318.061 362.729 325.062C355.728 332.064 346.235 336 336.333 336H37.6666C37.0076 336 36.3574 335.957 35.7161 335.891C26.5266 335.409 17.8103 331.602 11.2708 325.062C4.26938 318.061 0.333252 308.568 0.333252 298.667V186.667C0.333252 176.765 4.26939 167.272 11.2708 160.271C18.2721 153.269 27.7652 149.333 37.6666 149.333H102.333C107.856 149.333 112.333 144.856 112.333 139.333V37.3333C112.333 27.4319 116.269 17.9388 123.271 10.9375C130.272 3.93615 139.765 0 149.667 0H224.333ZM37.6666 288.667C37.6666 294.19 42.1437 298.667 47.6666 298.667H102.333C107.856 298.667 112.333 294.19 112.333 288.667V196.667C112.333 191.144 107.856 186.667 102.333 186.667H47.6666C42.1437 186.667 37.6666 191.144 37.6666 196.667V288.667ZM149.667 288.667C149.667 294.19 154.144 298.667 159.667 298.667H214.333C219.856 298.667 224.333 294.19 224.333 288.667V47.3333C224.333 41.8105 219.856 37.3333 214.333 37.3333H159.667C154.144 37.3333 149.667 41.8105 149.667 47.3333V288.667ZM261.667 288.667C261.667 294.19 266.144 298.667 271.667 298.667H326.333C331.856 298.667 336.333 294.19 336.333 288.667V122C336.333 116.477 331.856 112 326.333 112H271.667C266.144 112 261.667 116.477 261.667 122V288.667Z" fill="white" fill-opacity="0.4"/>
</g>
<path d="M149.666 5H224.333C232.907 5 241.129 8.40813 247.194 14.4727C253.258 20.5372 256.666 28.7591 256.666 37.333V64.667C256.666 72.951 263.382 79.6668 271.666 79.667H336.333C344.907 79.667 353.129 83.075 359.194 89.1396C365.258 95.2043 368.666 103.426 368.666 112V298.667C368.666 307.241 365.258 315.463 359.194 321.527C353.129 327.592 344.907 331 336.333 331H37.6663C37.2216 331 36.7495 330.971 36.2327 330.917L36.1057 330.904L35.9778 330.897L35.2307 330.85C27.5291 330.27 20.2787 327 14.8059 321.527C8.74134 315.463 5.33334 307.241 5.33325 298.667V186.667C5.33325 178.093 8.74147 169.871 14.8059 163.807C20.8705 157.742 29.0924 154.333 37.6663 154.333H102.333C110.618 154.333 117.333 147.617 117.333 139.333V37.333C117.333 28.7592 120.741 20.5372 126.806 14.4727C132.87 8.4081 141.092 5.00009 149.666 5ZM47.6663 181.667C39.3821 181.667 32.6663 188.383 32.6663 196.667V288.667C32.6664 296.951 39.3823 303.667 47.6663 303.667H102.333C110.617 303.667 117.333 296.951 117.333 288.667V196.667C117.333 188.383 110.618 181.667 102.333 181.667H47.6663ZM159.666 32.333C151.382 32.3332 144.666 39.049 144.666 47.333V288.667C144.666 296.951 151.382 303.667 159.666 303.667H214.333C222.617 303.667 229.333 296.951 229.333 288.667V47.333C229.333 39.0489 222.617 32.333 214.333 32.333H159.666ZM271.666 107C263.382 107 256.666 113.716 256.666 122V288.667C256.666 296.951 263.382 303.667 271.666 303.667H326.333C334.617 303.667 341.333 296.951 341.333 288.667V122C341.333 113.716 334.618 107 326.333 107H271.666Z" stroke="#D3D3E9" stroke-opacity="0.18" stroke-width="10"/>
</g>
<defs>
<filter id="filter0_ii_12_23" x="0.333252" y="-5" width="373.333" height="346" filterUnits="userSpaceOnUse" color-interpolation-filters="sRGB">
<feFlood flood-opacity="0" result="BackgroundImageFix"/>
<feBlend mode="normal" in="SourceGraphic" in2="BackgroundImageFix" result="shape"/>
<feColorMatrix in="SourceAlpha" type="matrix" values="0 0 0 0 0 0 0 0 0 0 0 0 0 0 0 0 0 0 127 0" result="hardAlpha"/>
<feOffset dy="10"/>
<feGaussianBlur stdDeviation="2.5"/>
<feComposite in2="hardAlpha" operator="arithmetic" k2="-1" k3="1"/>
<feColorMatrix type="matrix" values="0 0 0 0 0.905882 0 0 0 0 0.905882 0 0 0 0 0.996078 0 0 0 0.5 0"/>
<feBlend mode="normal" in2="shape" result="effect1_innerShadow_12_23"/>
<feColorMatrix in="SourceAlpha" type="matrix" values="0 0 0 0 0 0 0 0 0 0 0 0 0 0 0 0 0 0 127 0" result="hardAlpha"/>
<feOffset dy="-10"/>
<feGaussianBlur stdDeviation="2.5"/>
<feComposite in2="hardAlpha" operator="arithmetic" k2="-1" k3="1"/>
<feColorMatrix type="matrix" values="0 0 0 0 0.0156863 0 0 0 0 0.0156863 0 0 0 0 0.0431373 0 0 0 0.9 0"/>
<feBlend mode="normal" in2="effect1_innerShadow_12_23" result="effect2_innerShadow_12_23"/>
</filter>
<clipPath id="clip0_12_23">
<rect width="374" height="336" fill="white"/>
</clipPath>
</defs>
</svg>
